<?xml version="1.0" encoding="UTF-8"?>
<!DOCTYPE svg PUBLIC "-//W3C//DTD SVG 1.1//EN" "http://www.w3.org/Graphics/SVG/1.1/DTD/svg11.dtd">
<svg xmlns="http://www.w3.org/2000/svg" version="1.1" width="512px" height="512px" style="shape-rendering:geometricPrecision; text-rendering:geometricPrecision; image-rendering:optimizeQuality; fill-rule:evenodd; clip-rule:evenodd" xmlns:xlink="http://www.w3.org/1999/xlink">
<g><path style="opacity:0.997" fill="#4a7a6e" d="M 239.5,31.5 C 330.488,29.8975 399.655,67.5642 447,144.5C 486.538,219.373 486.205,294.04 446,368.5C 402.096,438.556 338.596,475.89 255.5,480.5C 171.408,475.894 107.574,437.894 64,366.5C 30.4614,302.663 26.4614,236.996 52,169.5C 80.6452,104.587 128.812,61.4208 196.5,40C 210.762,36.0717 225.096,33.2384 239.5,31.5 Z M 335.5,175.5 C 351.697,175.199 361.03,183.032 363.5,199C 363.13,205.785 360.63,211.618 356,216.5C 318.833,253.667 281.667,290.833 244.5,328C 234.61,336.748 223.944,337.748 212.5,331C 192.667,311.167 172.833,291.333 153,271.5C 145.667,261.5 145.667,251.5 153,241.5C 162.388,232.646 172.888,231.146 184.5,237C 198.167,250.667 211.833,264.333 225.5,278C 226.5,278.667 227.5,278.667 228.5,278C 261.167,245.333 293.833,212.667 326.5,180C 329.437,178.199 332.437,176.699 335.5,175.5 Z"/></g>
</svg>
