<?xml version="1.0" encoding="UTF-8"?>
<!DOCTYPE svg PUBLIC "-//W3C//DTD SVG 1.1//EN" "http://www.w3.org/Graphics/SVG/1.1/DTD/svg11.dtd">
<svg xmlns="http://www.w3.org/2000/svg" version="1.1" width="512px" height="512px" style="shape-rendering:geometricPrecision; text-rendering:geometricPrecision; image-rendering:optimizeQuality; fill-rule:evenodd; clip-rule:evenodd" xmlns:xlink="http://www.w3.org/1999/xlink">
<g><path style="opacity:0.992" fill="#ecc878" d="M 466.5,57.5 C 478.079,56.979 482.245,62.3123 479,73.5C 362.787,174.177 284.787,299.177 245,448.5C 241.606,453.082 237.106,454.582 231.5,453C 164.689,381.853 98.1889,310.353 32,238.5C 29.1104,231.947 30.6104,226.78 36.5,223C 70.5,222.333 104.5,222.333 138.5,223C 142.299,225.797 145.799,228.964 149,232.5C 167.96,255.129 187.293,277.462 207,299.5C 233.389,248.98 267.889,204.48 310.5,166C 358.203,123.649 410.203,87.4823 466.5,57.5 Z"/></g>
</svg>
