<?xml version="1.0" encoding="UTF-8"?>
<!DOCTYPE svg PUBLIC "-//W3C//DTD SVG 1.1//EN" "http://www.w3.org/Graphics/SVG/1.1/DTD/svg11.dtd">
<svg xmlns="http://www.w3.org/2000/svg" version="1.1" width="512px" height="512px" style="shape-rendering:geometricPrecision; text-rendering:geometricPrecision; image-rendering:optimizeQuality; fill-rule:evenodd; clip-rule:evenodd" xmlns:xlink="http://www.w3.org/1999/xlink">
<g><path style="opacity:0.995" fill="#b3b3b3" d="M 238.5,-0.5 C 249.833,-0.5 261.167,-0.5 272.5,-0.5C 338.791,10.2803 381.624,47.947 401,112.5C 403.093,121.389 404.426,130.389 405,139.5C 405.5,156.83 405.667,174.163 405.5,191.5C 417.505,191.333 429.505,191.5 441.5,192C 444,193.167 445.833,195 447,197.5C 447.667,291.167 447.667,384.833 447,478.5C 441.984,495.349 431.15,506.349 414.5,511.5C 308.5,511.5 202.5,511.5 96.5,511.5C 79.8497,506.349 69.0164,495.349 64,478.5C 63.3333,384.833 63.3333,291.167 64,197.5C 65.1667,195 67,193.167 69.5,192C 81.4954,191.5 93.4954,191.333 105.5,191.5C 105.333,174.163 105.5,156.83 106,139.5C 110.418,87.4679 134.584,47.6345 178.5,20C 197.332,9.40067 217.332,2.56733 238.5,-0.5 Z M 254.5,63.5 C 291.502,65.5739 318.002,83.2406 334,116.5C 336.277,122.332 337.944,128.332 339,134.5C 340.406,153.463 340.906,172.463 340.5,191.5C 283.833,191.5 227.167,191.5 170.5,191.5C 170.094,172.463 170.594,153.463 172,134.5C 179.251,99.9164 199.751,77.4164 233.5,67C 240.564,65.3398 247.564,64.1731 254.5,63.5 Z M 248.5,277.5 C 281.306,277.472 297.473,293.806 297,326.5C 294.905,337.241 289.572,345.907 281,352.5C 282.316,372.683 284.149,392.85 286.5,413C 287.409,418.516 285.409,422.516 280.5,425C 263.833,425.667 247.167,425.667 230.5,425C 228,423.833 226.167,422 225,419.5C 225.876,398.611 227.709,377.778 230.5,357C 230.333,355.5 230.167,354 230,352.5C 214.114,338.962 209.781,322.295 217,302.5C 223.68,289.256 234.18,280.923 248.5,277.5 Z"/></g>
</svg>
