<?xml version="1.0" encoding="UTF-8"?>
<!DOCTYPE svg PUBLIC "-//W3C//DTD SVG 1.1//EN" "http://www.w3.org/Graphics/SVG/1.1/DTD/svg11.dtd">
<svg xmlns="http://www.w3.org/2000/svg" version="1.1" width="512px" height="512px" style="shape-rendering:geometricPrecision; text-rendering:geometricPrecision; image-rendering:optimizeQuality; fill-rule:evenodd; clip-rule:evenodd" xmlns:xlink="http://www.w3.org/1999/xlink">
<g><path style="opacity:0.979" fill="#e6d260" d="M 445.5,-0.5 C 449.167,-0.5 452.833,-0.5 456.5,-0.5C 475.833,16.8333 494.167,35.1667 511.5,54.5C 511.5,58.1667 511.5,61.8333 511.5,65.5C 490.579,87.7568 469.245,109.757 447.5,131.5C 462.95,154.309 468.117,179.309 463,206.5C 459.563,224.04 451.897,239.374 440,252.5C 427.5,265 415,277.5 402.5,290C 396.04,294.179 389.373,294.512 382.5,291C 328.333,236.833 274.167,182.667 220,128.5C 216.488,121.627 216.821,114.96 221,108.5C 235.195,93.9707 249.695,79.8041 264.5,66C 294.938,44.5939 327.604,40.5939 362.5,54C 368.677,57.0883 374.677,60.0883 380.5,63C 401.757,41.2408 423.424,20.0741 445.5,-0.5 Z M 450.5,36.5 C 458.632,44.1309 466.632,51.9642 474.5,60C 458.333,76.1667 442.167,92.3333 426,108.5C 418.167,100.667 410.333,92.8333 402.5,85C 418.702,68.9652 434.702,52.7986 450.5,36.5 Z M 312.5,77.5 C 330.87,75.1375 347.537,79.3042 362.5,90C 380.972,107.471 399.138,125.305 417,143.5C 434.725,164.902 438.392,188.569 428,214.5C 425.584,219.001 422.917,223.334 420,227.5C 410.653,237.014 401.153,246.348 391.5,255.5C 345.833,210.5 300.5,165.167 255.5,119.5C 265.682,108.484 276.349,97.9844 287.5,88C 295.453,83.3501 303.786,79.8501 312.5,77.5 Z"/></g>
<g><path style="opacity:0.963" fill="#e6d35f" d="M 169.5,31.5 C 178.974,29.6544 185.807,32.9877 190,41.5C 190.667,50.1667 190.667,58.8333 190,67.5C 184.866,77.7432 177.032,80.5765 166.5,76C 163.131,73.6351 160.964,70.4685 160,66.5C 159.333,58.8333 159.333,51.1667 160,43.5C 161.194,37.8195 164.36,33.8195 169.5,31.5 Z"/></g>
<g><path style="opacity:0.975" fill="#e6d260" d="M 81.5,68.5 C 86.1821,68.338 90.5155,69.5046 94.5,72C 99.7,76.8653 104.533,82.0319 109,87.5C 113.616,100.6 109.116,108.6 95.5,111.5C 91.3784,111.056 87.7118,109.556 84.5,107C 79.6329,102.468 75.1329,97.6344 71,92.5C 66.6016,80.9687 70.1016,72.9687 81.5,68.5 Z"/></g>
<g><path style="opacity:0.963" fill="#e6d35f" d="M 43.5,159.5 C 51.1739,159.334 58.8406,159.5 66.5,160C 77.6041,164.56 80.7707,172.394 76,183.5C 73.7357,186.433 70.9024,188.6 67.5,190C 58.8333,190.667 50.1667,190.667 41.5,190C 32.8235,185.81 29.6568,178.976 32,169.5C 34.1938,164.171 38.0271,160.838 43.5,159.5 Z"/></g>
<g><path style="opacity:0.981" fill="#e6d360" d="M 65.5,511.5 C 61.8333,511.5 58.1667,511.5 54.5,511.5C 35.1667,494.167 16.8333,475.833 -0.5,456.5C -0.5,452.833 -0.5,449.167 -0.5,445.5C 20.4212,423.243 41.7545,401.243 63.5,379.5C 44.0751,348.684 41.2418,316.351 55,282.5C 59.5488,273.956 64.8822,265.956 71,258.5C 83.5,246 96,233.5 108.5,221C 111.726,218.536 115.393,217.369 119.5,217.5C 123.878,217.884 127.878,219.05 131.5,221C 143.5,209 155.5,197 167.5,185C 187.01,170.564 207.01,169.897 227.5,183C 249.332,203.498 252.166,226.331 236,251.5C 223.667,263.833 211.333,276.167 199,288.5C 198.333,289.167 198.333,289.833 199,290.5C 206.348,298.015 213.848,305.348 221.5,312.5C 235.348,298.818 249.348,285.318 263.5,272C 287.943,259.489 309.443,263.322 328,283.5C 341.103,303.99 340.436,323.99 326,343.5C 314,355.5 302,367.5 290,379.5C 291.95,383.122 293.116,387.122 293.5,391.5C 293.631,395.607 292.464,399.274 290,402.5C 274.773,418.396 258.94,433.562 242.5,448C 212.729,466.526 181.396,469.526 148.5,457C 142.51,454.34 136.844,451.174 131.5,447.5C 109.757,469.245 87.7568,490.579 65.5,511.5 Z M 196.5,204.5 C 209.123,205.287 215.289,211.953 215,224.5C 214.275,226.949 213.275,229.283 212,231.5C 200,243.5 188,255.5 176,267.5C 168.167,259.667 160.333,251.833 152.5,244C 164.167,232.333 175.833,220.667 187.5,209C 190.324,206.921 193.324,205.421 196.5,204.5 Z M 118.5,255.5 C 164.417,299.916 209.917,344.916 255,390.5C 255.667,391.167 255.667,391.833 255,392.5C 244.804,403.03 234.304,413.197 223.5,423C 204.165,434.624 183.832,436.624 162.5,429C 155.66,425.75 149.327,421.75 143.5,417C 127,400.5 110.5,384 94,367.5C 75.4773,344.443 72.4773,319.443 85,292.5C 86.7519,289.328 88.7519,286.328 91,283.5C 100.369,274.298 109.536,264.965 118.5,255.5 Z M 286.5,295.5 C 301.445,296.266 307.611,303.933 305,318.5C 293.064,332.438 280.397,345.772 267,358.5C 259.167,350.667 251.333,342.833 243.5,335C 255.5,323 267.5,311 279.5,299C 281.925,297.787 284.259,296.621 286.5,295.5 Z M 84.5,402.5 C 92.6316,410.131 100.632,417.964 108.5,426C 92.3333,442.167 76.1667,458.333 60,474.5C 52.1667,466.667 44.3333,458.833 36.5,451C 52.7018,434.965 68.7018,418.799 84.5,402.5 Z"/></g>
<g><path style="opacity:0.965" fill="#e6d35f" d="M 443.5,320.5 C 452.173,320.334 460.84,320.5 469.5,321C 479.789,326.657 482.289,334.823 477,345.5C 474.374,348.231 471.207,350.064 467.5,351C 459.833,351.667 452.167,351.667 444.5,351C 433.396,346.44 430.229,338.606 435,327.5C 437.441,324.546 440.275,322.213 443.5,320.5 Z"/></g>
<g><path style="opacity:0.975" fill="#e6d360" d="M 413.5,399.5 C 418.33,399.623 422.663,401.123 426.5,404C 431.367,408.532 435.867,413.366 440,418.5C 444.615,431.601 440.115,439.601 426.5,442.5C 422.926,442.031 419.592,440.864 416.5,439C 411.3,434.135 406.467,428.968 402,423.5C 397.547,411.408 401.38,403.408 413.5,399.5 Z"/></g>
<g><path style="opacity:0.962" fill="#e6d35f" d="M 333.5,432.5 C 342.476,431.984 348.309,435.984 351,444.5C 351.667,452.167 351.667,459.833 351,467.5C 346.486,479.664 338.319,482.831 326.5,477C 323.894,475.062 322.061,472.562 321,469.5C 320.333,460.833 320.333,452.167 321,443.5C 323.537,437.785 327.704,434.118 333.5,432.5 Z"/></g>
</svg>
